<svg width="26.000000" height="21.000000" viewBox="0 0 26 21" fill="none" xmlns="http://www.w3.org/2000/svg" xmlns:xlink="http://www.w3.org/1999/xlink">
	<desc>
			Created with Pixso.
	</desc>
	<defs/>
	<path id="Icon" d="M25 10L9 10M2.33 11.33C1.59 11.33 1 10.73 1 10C1 9.26 1.59 8.66 2.33 8.66C3.06 8.66 3.66 9.26 3.66 10C3.66 10.73 3.06 11.33 2.33 11.33ZM25 2L9 2M2.33 3.33C1.59 3.33 1 2.73 1 2C1 1.26 1.59 0.66 2.33 0.66C3.06 0.66 3.66 1.26 3.66 2C3.66 2.73 3.06 3.33 2.33 3.33ZM25 18L9 18M2.33 19.33C1.59 19.33 1 18.73 1 18C1 17.26 1.59 16.66 2.33 16.66C3.06 16.66 3.66 17.26 3.66 18C3.66 18.73 3.06 19.33 2.33 19.33Z" stroke="#3e95ff" stroke-opacity="1.000000" stroke-width="2.000000" stroke-linejoin="round"/>
</svg>
