<?xml version="1.0" encoding="UTF-8"?>
<svg id="_Слой_1" data-name="Слой 1" xmlns="http://www.w3.org/2000/svg" viewBox="0 0 367.63 198.5">
  <defs>
    <style>
      .cls-1, .cls-2 {
        fill: #fff;
      }

      .cls-2 {
        fill-rule: evenodd;
      }
    </style>
  </defs>
  <g>
    <path class="cls-1" d="m31.91,188.62h-1.64c-2.45,0-4.43-1.98-4.43-4.43v-31.69H6.09v31.69c0,2.45-1.98,4.43-4.43,4.43H0v-40.87h31.91v40.87Z"/>
    <path class="cls-1" d="m81.52,168.19c0,3.06-.49,5.86-1.47,8.41-.98,2.55-2.36,4.75-4.14,6.6-1.78,1.85-3.92,3.29-6.4,4.31s-5.25,1.54-8.28,1.54-5.77-.51-8.27-1.54-4.63-2.46-6.4-4.31c-1.77-1.85-3.15-4.05-4.14-6.6-.99-2.55-1.48-5.36-1.48-8.41s.49-5.83,1.48-8.4c.99-2.56,2.37-4.77,4.14-6.62,1.77-1.85,3.91-3.29,6.4-4.33,2.5-1.03,5.25-1.55,8.27-1.55s5.8.52,8.28,1.55c2.49,1.03,4.62,2.48,6.4,4.33,1.78,1.85,3.16,4.06,4.14,6.62.98,2.56,1.47,5.36,1.47,8.4Zm-6.2,0c0-2.43-.33-4.61-1-6.55-.66-1.94-1.61-3.58-2.83-4.92s-2.7-2.38-4.44-3.1c-1.74-.72-3.68-1.08-5.82-1.08s-4.08.36-5.82,1.08c-1.74.72-3.22,1.75-4.45,3.1s-2.18,2.99-2.85,4.92c-.66,1.93-1,4.12-1,6.55s.33,4.64,1,6.56c.66,1.93,1.61,3.56,2.85,4.91s2.72,2.38,4.45,3.09c1.74.71,3.68,1.07,5.82,1.07s4.08-.36,5.82-1.07c1.74-.71,3.22-1.74,4.44-3.09s2.17-2.98,2.83-4.91c.66-1.93,1-4.11,1-6.56Z"/>
    <path class="cls-1" d="m116.67,152.82h-12.98v35.81h-6.03v-35.81h-13.04v-5.07h32.05v5.07Z"/>
    <path class="cls-1" d="m149.34,183.7l-.03,4.92h-25.33v-40.87h25.33v4.92h-19.24v12.95h15.48v4.75h-15.48v13.32h19.27Z"/>
    <path class="cls-1" d="m191.73,147.75v40.87h-6.06v-18.42h-21.32v18.42h-6.09v-40.87h6.09v18.04h21.32v-18.04h6.06Z"/>
    <path class="cls-1" d="m241.31,183.87v12.87c0,.53-.18.96-.54,1.28-.36.32-.83.48-1.39.48h-3.59v-9.88h-32.53v-40.87h6.09v36.12h19.75v-36.12h6.06v36.12h6.15Z"/>
    <path class="cls-1" d="m282.75,147.75v40.87h-6.06v-28.12c0-.85.02-1.75.06-2.69s.13-1.92.28-2.95c-.36.91-.73,1.76-1.11,2.53-.38.78-.76,1.47-1.14,2.08l-18.27,27.24c-.29.47-.66.91-1.12,1.31s-.99.6-1.58.6h-4.53v-40.87h6.09v28.12c0,.85-.02,1.75-.07,2.69s-.14,1.93-.27,2.97c.34-.91.7-1.76,1.08-2.55s.76-1.49,1.14-2.09l18.3-27.24c.28-.47.66-.91,1.11-1.31s.98-.6,1.57-.6h4.53Z"/>
    <path class="cls-1" d="m327.92,188.62h-4.7c-.53,0-.96-.13-1.29-.4-.33-.27-.58-.61-.76-1.02l-3.61-9.48h-17.99l-3.61,9.48c-.15.36-.4.69-.76.98-.35.29-.78.44-1.29.44h-4.7l16.28-40.87h6.15l16.28,40.87Zm-12.01-15.23l-6.06-15.85c-.21-.53-.42-1.14-.64-1.84-.22-.69-.43-1.44-.64-2.23-.21.82-.42,1.57-.64,2.26-.22.69-.43,1.31-.64,1.86l-6.03,15.8h14.66Z"/>
    <path class="cls-1" d="m367.63,188.62h-6.09v-36.12h-12.89c-.27,5.22-.63,9.74-1.1,13.58-.47,3.83-1.02,7.1-1.67,9.81s-1.38,4.91-2.19,6.62-1.71,3.05-2.69,4.01c-.98.97-2.03,1.63-3.14,1.98-1.12.35-2.31.53-3.56.53-2.24,0-3.36-.4-3.36-1.2v-3.84h2.02c.72,0,1.45-.14,2.18-.41.73-.27,1.43-.84,2.11-1.71.67-.86,1.32-2.11,1.94-3.73s1.17-3.78,1.67-6.46.92-5.98,1.27-9.89c.35-3.91.62-8.59.81-14.03h24.71v40.87Z"/>
  </g>
  <g>
    <path class="cls-1" d="m207.56,120.73h0c-4.98,0-9.02-4.04-9.02-9.02v-44.73h-29.4v44.73c0,4.98-4.04,9.02-9.02,9.02h-.04v-60.83h47.49v60.83Z"/>
    <polygon class="cls-2" points="207.58 56.31 160.06 56.31 160.06 51.55 207.58 51.55 207.58 56.31 207.58 56.31"/>
    <polygon class="cls-2" points="160.05 21.72 176.29 33.41 184.07 21.72 191.45 33.41 207.58 21.72 207.58 47.96 160.06 47.96 160.05 21.72"/>
    <path class="cls-1" d="m133.56,0v120.8h22.83v-.07s0-7.08,0-7.08h-.34c-7.83,0-14.18-5.47-14.18-12.22V19.38c0-6.75,6.35-12.22,14.18-12.22h55.55c7.83,0,14.18,5.47,14.18,12.22v82.05c0,6.75-6.35,12.22-14.18,12.22h-.34v7.15h22.82V0h-100.51Z"/>
  </g>
</svg>