<svg width="28.000000" height="28.000000" viewBox="0 0 28 28" fill="none" xmlns="http://www.w3.org/2000/svg" xmlns:xlink="http://www.w3.org/1999/xlink">
	<desc>
			Created with Pixso.
	</desc>
	<defs/>
	<path id="Icon" d="M0.33 26.66C0.33 26.66 5.31 26 7 24C7.94 22.87 7.93 21.15 6.87 20.11C6.36 19.62 5.67 19.33 4.96 19.31C4.24 19.29 3.54 19.53 3 20C1 21.67 0.33 26.66 0.33 26.66ZM18.33 15.33C18.33 15.33 19.77 19.83 18.33 22C17.04 23.93 13 24.66 13 24.66L13 18L9 14L2.33 14C2.33 14 3.06 9.95 5 8.66C7.16 7.22 11.66 8.66 11.66 8.66M9 14C9.7 12.15 10.6 10.39 11.66 8.73C13.21 6.24 15.38 4.2 17.95 2.79C20.51 1.38 23.4 0.64 26.33 0.66C26.33 4.29 25.29 10.66 18.33 15.33C16.64 16.39 14.86 17.29 13 18" stroke="#3e95ff" stroke-opacity="1.000000" stroke-width="2.000000" stroke-linejoin="round"/>
</svg>
