<svg width="29.000000" height="26.000000" viewBox="0 0 29 26" fill="none" xmlns="http://www.w3.org/2000/svg" xmlns:xlink="http://www.w3.org/1999/xlink">
	<desc>
			Created with Pixso.
	</desc>
	<defs/>
	<path id="Icon" d="M23.33 17.16C25.63 17.76 27.33 19.84 27.33 22.33L27.33 25M18.66 1.38C20.62 2.17 22 4.09 22 6.33C22 8.57 20.62 10.48 18.66 11.27M0.66 25C0.66 22.51 0.66 21.27 1.07 20.29C1.61 18.98 2.65 17.94 3.95 17.4C4.93 17 6.18 17 8.66 17L12.66 17C15.15 17 16.39 17 17.37 17.4C18.68 17.94 19.71 18.98 20.26 20.29C20.66 21.27 20.66 22.51 20.66 25M10.66 11.66C7.72 11.66 5.33 9.27 5.33 6.33C5.33 3.38 7.72 1 10.66 1C13.61 1 16 3.38 16 6.33C16 9.27 13.61 11.66 10.66 11.66Z" stroke="#FFFFFF" stroke-opacity="1.000000" stroke-width="2.000000" stroke-linejoin="round"/>
</svg>
