<?xml version="1.0" encoding="UTF-8"?>
<svg id="_Слой_1" data-name="Слой 1" xmlns="http://www.w3.org/2000/svg" viewBox="0 0 398.44 85.67">
  <defs>
    <style>
      .cls-1, .cls-2 {
        fill: #fff;
      }

      .cls-2 {
        fill-rule: evenodd;
      }
    </style>
  </defs>
  <g>
    <path class="cls-1" d="m119.28,60.91h-1.36c-2.03,0-3.68-1.65-3.68-3.68v-26.33h-16.41v26.33c0,2.03-1.65,3.68-3.68,3.68h-1.38V26.95h26.51v33.96Z"/>
    <path class="cls-1" d="m160.5,43.93c0,2.54-.41,4.87-1.22,6.99-.81,2.12-1.96,3.95-3.44,5.49-1.48,1.54-3.26,2.73-5.32,3.58s-4.36,1.28-6.88,1.28-4.8-.43-6.87-1.28-3.85-2.05-5.32-3.58c-1.47-1.54-2.62-3.37-3.44-5.49-.82-2.12-1.23-4.45-1.23-6.99s.41-4.85,1.23-6.98c.82-2.13,1.97-3.96,3.44-5.5,1.47-1.54,3.25-2.73,5.32-3.59,2.07-.86,4.36-1.29,6.87-1.29s4.82.43,6.88,1.29c2.07.86,3.84,2.06,5.32,3.59,1.48,1.54,2.63,3.37,3.44,5.5.81,2.13,1.22,4.45,1.22,6.98Zm-5.15,0c0-2.02-.28-3.83-.83-5.44-.55-1.61-1.34-2.97-2.35-4.09s-2.25-1.98-3.69-2.58c-1.44-.6-3.05-.9-4.84-.9s-3.39.3-4.84.9c-1.44.6-2.68,1.46-3.7,2.58s-1.81,2.48-2.36,4.09c-.55,1.61-.83,3.42-.83,5.44s.28,3.85.83,5.45c.55,1.6,1.34,2.96,2.36,4.08s2.26,1.97,3.7,2.57c1.44.59,3.05.89,4.84.89s3.39-.3,4.84-.89c1.44-.59,2.67-1.45,3.69-2.57s1.8-2.48,2.35-4.08c.55-1.6.83-3.42.83-5.45Z"/>
    <path class="cls-1" d="m189.7,31.16h-10.78v29.75h-5.01v-29.75h-10.83v-4.21h26.63v4.21Z"/>
    <path class="cls-1" d="m216.85,56.82l-.02,4.09h-21.05V26.95h21.05v4.09h-15.99v10.76h12.86v3.95h-12.86v11.07h16.01Z"/>
    <path class="cls-1" d="m252.06,26.95v33.96h-5.04v-15.3h-17.71v15.3h-5.06V26.95h5.06v14.99h17.71v-14.99h5.04Z"/>
    <path class="cls-1" d="m293.25,56.96v10.69c0,.44-.15.8-.45,1.06-.3.27-.69.4-1.16.4h-2.98v-8.21h-27.03V26.95h5.06v30.01h16.41v-30.01h5.04v30.01h5.11Z"/>
    <path class="cls-1" d="m327.68,26.95v33.96h-5.04v-23.36c0-.71.02-1.45.05-2.23s.11-1.6.24-2.45c-.3.76-.61,1.46-.92,2.1-.32.65-.63,1.22-.95,1.73l-15.18,22.63c-.24.39-.55.76-.93,1.09s-.82.5-1.31.5h-3.76V26.95h5.06v23.36c0,.71-.02,1.45-.06,2.23s-.11,1.6-.22,2.47c.28-.76.58-1.46.9-2.12s.63-1.23.95-1.74l15.21-22.63c.24-.39.54-.76.92-1.09s.81-.5,1.3-.5h3.76Z"/>
    <path class="cls-1" d="m365.21,60.91h-3.9c-.44,0-.8-.11-1.08-.33-.28-.22-.49-.5-.63-.85l-3-7.87h-14.95l-3,7.87c-.13.3-.34.57-.63.82-.29.24-.65.37-1.08.37h-3.9l13.53-33.96h5.11l13.53,33.96Zm-9.98-12.65l-5.04-13.17c-.17-.44-.35-.95-.53-1.53-.18-.58-.36-1.19-.53-1.86-.17.68-.35,1.3-.53,1.88-.18.58-.36,1.09-.53,1.55l-5.01,13.12h12.18Z"/>
    <path class="cls-1" d="m398.44,60.91h-5.06v-30.01h-10.71c-.22,4.33-.52,8.09-.91,11.28-.39,3.18-.85,5.9-1.38,8.15s-1.14,4.08-1.82,5.5-1.42,2.53-2.23,3.33c-.81.8-1.68,1.35-2.61,1.64-.93.29-1.92.44-2.96.44-1.86,0-2.79-.33-2.79-.99v-3.19h1.68c.6,0,1.2-.11,1.81-.34.61-.23,1.19-.7,1.75-1.42.56-.72,1.1-1.75,1.61-3.1s.97-3.14,1.38-5.37.76-4.97,1.05-8.22c.29-3.25.52-7.13.67-11.66h20.53v33.96Z"/>
  </g>
  <g>
    <path class="cls-1" d="m52.48,85.62h0c-3.53,0-6.4-2.86-6.4-6.4v-31.72h-20.85v31.72c0,3.53-2.86,6.4-6.4,6.4h-.03v-43.14h33.68v43.14Z"/>
    <polygon class="cls-2" points="52.49 39.93 18.79 39.93 18.79 36.56 52.49 36.56 52.49 39.93 52.49 39.93"/>
    <polygon class="cls-2" points="18.79 15.4 30.31 23.69 35.83 15.4 41.06 23.69 52.49 15.4 52.49 34.01 18.79 34.01 18.79 15.4"/>
    <path class="cls-1" d="m0,0v85.67h16.19v-.05s0-5.02,0-5.02h-.24c-5.56,0-10.06-3.88-10.06-8.67V13.74c0-4.79,4.5-8.67,10.06-8.67h39.4c5.56,0,10.06,3.88,10.06,8.67v58.19c0,4.79-4.5,8.67-10.06,8.67h-.24v5.07h16.19V0H0Z"/>
  </g>
</svg>