<?xml version="1.0" encoding="UTF-8"?>
<svg id="_Слой_1" data-name="Слой 1" xmlns="http://www.w3.org/2000/svg" viewBox="0 0 219.87 264.25">
  <defs>
    <style>
      .cls-1, .cls-2 {
        fill: #fff;
      }

      .cls-2 {
        fill-rule: evenodd;
      }
    </style>
  </defs>
  <path class="cls-1" d="m161.88,264.09h0c-10.9,0-19.74-8.84-19.74-19.74v-97.85h-64.31v97.85c0,10.9-8.84,19.74-19.74,19.74h-.09v-133.06h103.87v133.06Z"/>
  <polygon class="cls-2" points="161.91 123.17 57.96 123.17 57.96 112.76 161.91 112.76 161.91 123.17 161.91 123.17"/>
  <polygon class="cls-2" points="57.96 47.51 93.48 73.08 110.5 47.51 126.65 73.08 161.91 47.51 161.91 104.9 57.96 104.9 57.96 47.51"/>
  <path class="cls-1" d="m0,0v264.25h49.94v-.16s0-15.48,0-15.48h-.75c-17.14,0-31.03-11.97-31.03-26.74V42.39c0-14.77,13.89-26.74,31.03-26.74h121.51c17.14,0,31.03,11.97,31.03,26.74v179.48c0,14.77-13.89,26.74-31.03,26.74h-.75v15.65h49.93V0H0Z"/>
</svg>