<?xml version="1.0" encoding="UTF-8"?>
<svg id="_Слой_1" data-name="Слой 1" xmlns="http://www.w3.org/2000/svg" viewBox="0 0 381 53.02">
  <defs>
    <style>
      .cls-1 {
        fill: #fff;
      }
    </style>
  </defs>
  <path class="cls-1" d="m33.04,42.8h-1.69c-2.53,0-4.58-2.05-4.58-4.58V5.39H6.31v32.82c0,2.53-2.05,4.58-4.58,4.58H0V.47h33.04v42.32Z"/>
  <path class="cls-1" d="m84.41,21.63c0,3.16-.51,6.07-1.52,8.71-1.01,2.64-2.44,4.92-4.29,6.84-1.85,1.92-4.06,3.4-6.63,4.47s-5.43,1.59-8.58,1.59-5.98-.53-8.56-1.59-4.79-2.55-6.63-4.47c-1.84-1.92-3.27-4.2-4.29-6.84-1.02-2.64-1.53-5.55-1.53-8.71s.51-6.04,1.53-8.69c1.02-2.65,2.45-4.94,4.29-6.85,1.84-1.92,4.05-3.41,6.63-4.48,2.58-1.07,5.44-1.61,8.56-1.61s6,.54,8.58,1.61c2.57,1.07,4.78,2.56,6.63,4.48,1.85,1.92,3.28,4.2,4.29,6.85,1.01,2.65,1.52,5.55,1.52,8.69Zm-6.43,0c0-2.51-.34-4.77-1.03-6.78-.69-2-1.66-3.7-2.93-5.1s-2.8-2.47-4.6-3.21c-1.8-.75-3.81-1.12-6.03-1.12s-4.23.37-6.03,1.12c-1.8.75-3.34,1.82-4.61,3.21s-2.26,3.09-2.95,5.1c-.69,2-1.03,4.26-1.03,6.78s.34,4.8,1.03,6.79c.69,1.99,1.67,3.69,2.95,5.08s2.81,2.46,4.61,3.2c1.8.74,3.81,1.11,6.03,1.11s4.23-.37,6.03-1.11c1.8-.74,3.33-1.8,4.6-3.2s2.24-3.09,2.93-5.08c.69-1.99,1.03-4.26,1.03-6.79Z"/>
  <path class="cls-1" d="m120.82,5.72h-13.44v37.08h-6.25V5.72h-13.5V.47h33.19v5.25Z"/>
  <path class="cls-1" d="m154.65,37.7l-.03,5.1h-26.23V.47h26.23v5.1h-19.92v13.41h16.03v4.92h-16.03v13.79h19.95Z"/>
  <path class="cls-1" d="m198.54.47v42.32h-6.28v-19.07h-22.08v19.07h-6.31V.47h6.31v18.69h22.08V.47h6.28Z"/>
  <path class="cls-1" d="m249.88,37.87v13.32c0,.55-.19.99-.56,1.33-.37.33-.86.5-1.44.5h-3.71v-10.23h-33.69V.47h6.31v37.4h20.46V.47h6.28v37.4h6.37Z"/>
  <path class="cls-1" d="m292.79.47v42.32h-6.28V13.68c0-.88.02-1.81.06-2.79s.14-1.99.29-3.05c-.37.94-.76,1.82-1.15,2.62-.39.81-.79,1.52-1.18,2.15l-18.92,28.21c-.3.49-.68.94-1.16,1.36s-1.03.62-1.64.62h-4.69V.47h6.31v29.12c0,.88-.02,1.81-.07,2.79s-.14,2-.28,3.08c.35-.94.73-1.82,1.12-2.64s.79-1.54,1.18-2.17l18.95-28.21c.29-.49.68-.94,1.15-1.36s1.01-.62,1.62-.62h4.69Z"/>
  <path class="cls-1" d="m339.57,42.8h-4.86c-.55,0-1-.14-1.34-.41-.34-.27-.6-.63-.78-1.06l-3.74-9.81h-18.63l-3.74,9.81c-.16.37-.42.71-.78,1.02-.36.3-.81.46-1.34.46h-4.86L316.35.47h6.37l16.86,42.32Zm-12.44-15.77l-6.28-16.42c-.22-.55-.44-1.18-.66-1.9-.23-.72-.45-1.49-.66-2.31-.22.84-.44,1.63-.66,2.34-.23.72-.45,1.36-.66,1.93l-6.25,16.36h15.18Z"/>
  <path class="cls-1" d="m381,42.8h-6.31V5.39h-13.35c-.28,5.4-.65,10.09-1.14,14.06-.48,3.97-1.06,7.35-1.72,10.15-.67,2.8-1.43,5.08-2.27,6.85s-1.77,3.15-2.79,4.16c-1.01,1-2.1,1.69-3.26,2.05-1.16.36-2.39.55-3.68.55-2.32,0-3.48-.41-3.48-1.24v-3.98h2.09c.75,0,1.5-.14,2.25-.43.76-.28,1.48-.87,2.18-1.77.7-.89,1.37-2.18,2-3.86.64-1.68,1.21-3.91,1.72-6.69.51-2.78.95-6.19,1.31-10.24.36-4.05.64-8.89.84-14.53h25.58v42.32Z"/>
</svg>